<svg xmlns="http://www.w3.org/2000/svg" width="24.607" height="24.606" viewBox="0 0 24.607 24.606">
  <path id="Icon_awesome-linkedin-in" data-name="Icon awesome-linkedin-in" d="M5.508,24.607H.406V8.179h5.1ZM2.954,5.938A2.968,2.968,0,1,1,5.909,2.955,2.979,2.979,0,0,1,2.954,5.938ZM24.6,24.607H19.511v-8c0-1.906-.038-4.35-2.652-4.35-2.652,0-3.059,2.071-3.059,4.213v8.134H8.7V8.179H13.6V10.42h.071a5.36,5.36,0,0,1,4.827-2.653c5.163,0,6.112,3.4,6.112,7.816v9.024Z" transform="translate(0 -0.001)"/>
</svg>
