<svg xmlns="http://www.w3.org/2000/svg" width="24.62" height="24.615" viewBox="0 0 24.62 24.615">
  <path id="Icon_awesome-instagram" data-name="Icon awesome-instagram" d="M12.308,8.234a6.311,6.311,0,1,0,6.311,6.311A6.3,6.3,0,0,0,12.308,8.234Zm0,10.414a4.1,4.1,0,1,1,4.1-4.1,4.11,4.11,0,0,1-4.1,4.1ZM20.349,7.976A1.472,1.472,0,1,1,18.877,6.5,1.469,1.469,0,0,1,20.349,7.976Zm4.18,1.494A7.285,7.285,0,0,0,22.54,4.313a7.332,7.332,0,0,0-5.158-1.988c-2.032-.115-8.123-.115-10.156,0A7.322,7.322,0,0,0,2.07,4.307,7.308,7.308,0,0,0,.081,9.465c-.115,2.032-.115,8.123,0,10.156A7.285,7.285,0,0,0,2.07,24.778a7.342,7.342,0,0,0,5.158,1.988c2.032.115,8.123.115,10.156,0a7.285,7.285,0,0,0,5.158-1.988,7.332,7.332,0,0,0,1.988-5.158c.115-2.032.115-8.118,0-10.15ZM21.9,21.8a4.154,4.154,0,0,1-2.34,2.34c-1.62.643-5.465.494-7.256.494s-5.641.143-7.256-.494a4.154,4.154,0,0,1-2.34-2.34c-.643-1.62-.494-5.465-.494-7.256S2.075,8.9,2.712,7.289a4.154,4.154,0,0,1,2.34-2.34c1.62-.643,5.465-.494,7.256-.494s5.641-.143,7.256.494a4.154,4.154,0,0,1,2.34,2.34c.643,1.62.494,5.465.494,7.256S22.546,20.186,21.9,21.8Z" transform="translate(0.005 -2.238)"/>
</svg>
