<?xml version="1.0" encoding="utf-8"?>
<!-- Generator: Adobe Illustrator 17.1.0, SVG Export Plug-In . SVG Version: 6.00 Build 0)  -->
<!DOCTYPE svg PUBLIC "-//W3C//DTD SVG 1.1//EN" "http://www.w3.org/Graphics/SVG/1.1/DTD/svg11.dtd">
<svg version="1.1" id="Layer_1" xmlns="http://www.w3.org/2000/svg" xmlns:xlink="http://www.w3.org/1999/xlink" x="0px" y="0px"
	 viewBox="0 0 30.4 35.2" enable-background="new 0 0 30.4 35.2" xml:space="preserve">
<g>
	<path d="M15.2,6.3c-4.2,0-8.1,1.9-10.7,5.2C-0.2,17.4,0.8,26,6.7,30.8c2.5,2,5.4,3,8.5,3c4.2,0,8.1-1.9,10.7-5.2c4-5,4-12.1,0-17.1
		L25.5,11l2.3-2.3c-0.4-0.4-0.8-0.8-1.2-1.2l-2.3,2.3l-0.5-0.4C21.3,7.4,18.4,6.3,15.2,6.3z M15.2,32c-6.6,0-12-5.4-12-12
		s5.4-12,12-12s12,5.4,12,12C27.2,26.6,21.8,32,15.2,32z M14.3,20.9h1.7v-8.1h-1.7V20.9z M11.1,3.2h8.1l0-1.7h-8.1V3.2z"/>
</g>
</svg>
