<svg xmlns="http://www.w3.org/2000/svg" width="28.484" height="28.484" viewBox="0 0 28.484 28.484">
  <path id="Icon_ionic-logo-whatsapp" data-name="Icon ionic-logo-whatsapp" d="M16.75,2.25A13.929,13.929,0,0,0,2.767,16.125,13.732,13.732,0,0,0,4.774,23.29L2.25,30.734l7.742-2.459A14.007,14.007,0,0,0,30.734,16.125,13.929,13.929,0,0,0,16.75,2.25ZM23.7,21.395a3.612,3.612,0,0,1-2.473,1.594c-.656.035-.674.508-4.25-1.045s-5.726-5.331-5.9-5.574a6.857,6.857,0,0,1-1.319-3.717,3.962,3.962,0,0,1,1.361-2.907,1.369,1.369,0,0,1,.968-.408c.282,0,.464-.008.672,0s.521-.044.792.676.918,2.489,1,2.67a.648.648,0,0,1,.006.621,2.428,2.428,0,0,1-.379.577c-.187.2-.393.448-.559.6-.186.169-.38.354-.184.716a10.7,10.7,0,0,0,1.893,2.526,9.756,9.756,0,0,0,2.8,1.864c.351.191.56.17.777-.059s.931-1,1.182-1.346.487-.278.81-.148,2.045,1.053,2.4,1.243.584.288.668.439A2.936,2.936,0,0,1,23.7,21.395Z" transform="translate(-2.25 -2.25)" fill="#222"/>
</svg>
