<svg xmlns="http://www.w3.org/2000/svg" width="29.997" height="21.091" viewBox="0 0 29.997 21.091">
  <path id="Icon_awesome-youtube" data-name="Icon awesome-youtube" d="M30.42,7.8a3.769,3.769,0,0,0-2.652-2.669C25.429,4.5,16.048,4.5,16.048,4.5s-9.38,0-11.72.631A3.769,3.769,0,0,0,1.677,7.8a39.539,39.539,0,0,0-.627,7.267,39.539,39.539,0,0,0,.627,7.267,3.713,3.713,0,0,0,2.652,2.627c2.339.631,11.72.631,11.72.631s9.38,0,11.72-.631a3.713,3.713,0,0,0,2.652-2.627,39.539,39.539,0,0,0,.627-7.267A39.539,39.539,0,0,0,30.42,7.8ZM12.98,19.527v-8.92l7.84,4.46-7.84,4.46Z" transform="translate(-1.05 -4.5)"/>
</svg>
