<svg xmlns="http://www.w3.org/2000/svg" width="26.986" height="26.991" viewBox="0 0 26.986 26.991">
  <path id="Icon_metro-link" data-name="Icon metro-link" d="M14.063,18.5a1.347,1.347,0,0,1-.956-.4,6.349,6.349,0,0,1,0-8.969l4.99-4.99a6.342,6.342,0,1,1,8.969,8.969L24.786,15.4a1.352,1.352,0,0,1-1.911-1.911L25.155,11.2a3.639,3.639,0,0,0-5.146-5.146l-4.99,4.99a3.643,3.643,0,0,0,0,5.146,1.352,1.352,0,0,1-.956,2.307ZM9.275,28.281A6.342,6.342,0,0,1,4.79,17.455l2.281-2.281a1.352,1.352,0,1,1,1.911,1.911L6.7,19.366a3.639,3.639,0,0,0,5.146,5.146l4.99-4.99a3.643,3.643,0,0,0,0-5.146,1.352,1.352,0,1,1,1.911-1.911,6.349,6.349,0,0,1,0,8.969l-4.99,4.99a6.3,6.3,0,0,1-4.485,1.858Z" transform="translate(-2.436 -1.79)" fill="#222" stroke="#222" stroke-width="1"/>
</svg>
