<svg width="40" height="30" viewBox="0 0 40 30" fill="none" xmlns="http://www.w3.org/2000/svg">
<g clip-path="url(#clip0_316_4980)">
<path d="M5.67407 20.8044L7.97406 27.1184L29.498 27.8074L22.61 7.31543L5.67407 20.8044Z" fill="#CFD8EB"/>
<path d="M23.8328 3.11796C23.5201 2.1985 22.5215 1.7065 21.6023 2.01905C20.6831 2.33159 20.1914 3.33033 20.5041 4.24979L28.2984 27.1729C28.611 28.0923 29.6096 28.5843 30.5288 28.2718C31.448 27.9592 31.9397 26.9605 31.6271 26.041L23.8328 3.11796Z" stroke="#222222" stroke-width="1.50037" stroke-linecap="round" stroke-linejoin="round"/>
<path d="M20.7151 4.86719L2.76709 19.4662" stroke="#222222" stroke-width="1.5" stroke-linecap="round" stroke-linejoin="round"/>
<path d="M5.09802 26.3115L28.226 26.9255" stroke="#222222" stroke-width="1.5" stroke-linecap="round" stroke-linejoin="round"/>
<path d="M17.845 26.6463C17.8078 27.3479 17.499 28.0075 16.9841 28.4855C16.4691 28.9635 15.7884 29.2223 15.086 29.2073L12.686 29.0943C11.9979 29.0597 11.3477 28.7684 10.8639 28.2777C10.3801 27.7871 10.0979 27.1329 10.073 26.4443" stroke="#222222" stroke-width="1.5" stroke-linecap="round" stroke-linejoin="round"/>
<path d="M1.64307 18.1162L4.91711 27.8258" stroke="#222222" stroke-width="1.5" stroke-linecap="round"/>
<path d="M30.332 7.31543L33.8633 3.25124" stroke="#222222" stroke-width="1.50027" stroke-linecap="round"/>
<path d="M32.201 12.2031L37.9074 10.349" stroke="#222222" stroke-width="1.5" stroke-linecap="round"/>
<path d="M33.858 17.9277L38.6034 18.5947" stroke="#222222" stroke-width="1.5" stroke-linecap="round"/>
</g>
<defs>
<clipPath id="clip0_316_4980">
<rect width="38.951" height="29.457" fill="white" transform="translate(0.5 0.5)"/>
</clipPath>
</defs>
</svg>
